<svg id="图层_1" xmlns="http://www.w3.org/2000/svg" viewBox="0 0 24.2 24.9"><style>.st0{fill-rule:evenodd;clip-rule:evenodd;fill:#ff4b4a}</style><path class="st0" d="M23.7 7.7c-1.4-3.4-4.3-5.9-7.8-6.9.7-.5 1.6-.8 2.5-.8 3-.2 5.6 2.1 5.8 5.1 0 1-.2 1.8-.5 2.6zm-.6 6.2c0 6.1-4.9 11-11 11s-11-4.9-11-11 4.9-11 11-11 11 4.9 11 11zm-11-9c-5 0-9 4-9 9s4 9 9 9 9-4 9-9-4-9-9-9zm3.7 9.9h-3.7c-.5 0-.9-.4-.9-.9V8.4c0-.5.4-.9.9-.9s.9.4.9.9V13h2.8c.5 0 .9.4.9.9s-.4.9-.9.9zM.5 7.8C.2 7 0 6.1 0 5.2.2 2.2 2.8-.1 5.8.1c.9.1 1.8.4 2.5.8-3.5.9-6.4 3.5-7.8 6.9z"/></svg>