<svg xmlns="http://www.w3.org/2000/svg" preserveAspectRatio="xMidYMid" width="30" height="30" viewBox="0 0 30 30"><defs><style>.cls-1{fill:#f53058;fill-rule:evenodd}</style></defs><path d="M15 30C6.716 30 0 23.284 0 15 0 6.716 6.716 0 15 0c8.284 0 15 6.716 15 15 0 8.284-6.716 15-15 15zm0-28C7.82 2 2 7.82 2 15s5.82 13 13 13 13-5.82 13-13S22.18 2 15 2zm5.657 20.07L15 16.415 9.343 22.07 7.93 20.658 13.585 15 7.93 9.343 9.342 7.93 15 13.585l5.657-5.657 1.414 1.413L16.415 15l5.657 5.657-1.413 1.414z" class="cls-1"/></svg>