<svg xmlns="http://www.w3.org/2000/svg" preserveAspectRatio="xMidYMid" width="36" height="44.531" viewBox="0 0 36 44.531"><defs><style>.cls-1{fill:#989898;fill-rule:evenodd}</style></defs><path d="M33.592 44.53c0-.054.008-.107.008-.16 0-8.613-6.984-15.594-15.6-15.594S2.4 35.756 2.4 44.37c0 .053.008.106.008.16h-2.4c0-.05-.008-.1-.008-.15 0-7.98 5.204-14.736 12.4-17.09-5.17-2.155-8.8-7.204-8.8-13.09C3.6 6.36 10.047 0 18 0s14.4 6.358 14.4 14.2c0 5.886-3.63 10.935-8.8 13.09C30.795 29.643 36 36.4 36 44.38c0 .05-.007.1-.008.15h-2.4zM30 14.4c0-6.622-5.373-11.99-12-11.99S6 7.778 6 14.4s5.373 11.99 12 11.99 12-5.368 12-11.99z" class="cls-1"/></svg>