<svg style="width:308px;height:308px" xmlns="http://www.w3.org/2000/svg" width="1024" height="1024" viewBox="0 0 1024 1024"><path class="svgpath" data-index="path_0" fill="#363636" d="M986.55 969.323l-54.65 54.652-126.956-126.93c-38.898 32.282-88.83 51.68-143.332 51.68-124.11 0-224.7-100.59-224.7-224.697 0-124.084 100.59-224.698 224.7-224.698S886.31 599.944 886.31 724.028c0 41.62-11.51 80.442-31.208 113.847L986.55 969.323zM661.612 574.23c-82.714 0-149.8 67.084-149.8 149.798 0 82.74 67.086 149.8 149.8 149.8s149.798-67.06 149.798-149.8c0-82.714-67.084-149.8-149.798-149.8zm99.866-249.666h-74.9v99.866h-2.522c1.4 3.945 2.522 8.064 2.522 12.483 0 20.673-16.777 37.45-37.45 37.45s-37.45-16.777-37.45-37.45c0-4.42 1.124-8.538 2.522-12.483h-2.52v-99.866H362.013v99.866h-2.522c1.398 3.945 2.522 8.064 2.522 12.483 0 20.673-16.778 37.45-37.45 37.45s-37.45-16.777-37.45-37.45c0-4.42 1.124-8.538 2.522-12.483h-2.522v-99.866h-74.9L112.35 923.76h354.523l89.88 74.9H37.45l99.866-748.995h149.798v-49.933C287.114 89.43 376.544 0 486.846 0s199.732 89.43 199.732 199.732v49.933h149.8l29.96 224.698h-79.894l-24.966-149.8zM486.846 74.9c-68.957 0-124.832 55.9-124.832 124.832v49.933H611.68v-49.933C611.68 130.8 555.803 74.9 486.845 74.9z"/></svg>