<svg id="图层_1" xmlns="http://www.w3.org/2000/svg" viewBox="0 0 30 30"><style>.st0{fill:#fa2855}</style><path class="st0" d="M7.4 15h2.7v-4.6H7.4V15zm4.1 6.4h2.7v-5h-2.7v5zM24 0H6C2.7 0 0 2.7 0 6v18c0 3.3 2.7 6 6 6h18c3.3 0 6-2.7 6-6V6c0-3.3-2.7-6-6-6zm-8.3 24h-1.5v-1.1H7.4v1.5H6V9h4V5.7h1.6V9h4.1v15zm8.9-4.7c0 1.3-.3 2.3-1 2.8-.4.2-.9.4-1.4.5-.6.1-1.3.1-1.9 0 0-.4-.2-1.1-.5-1.6.7.1 1.3.1 1.8.1.3 0 .7-.1.9-.2.4-.3.6-.9.6-1.7 0-1.4-.6-3-2.6-5 .8-1.8 1.7-4.2 2.3-5.9h-3.5v17.4h-1.4V6.8h5.7l.3-.1 1.1.7c-1 2.1-2 4.6-2.9 6.6 2 2.1 2.5 3.8 2.5 5.3zM7.4 21.4h2.7v-5H7.4v5zm4.1-6.4h2.7v-4.6h-2.7V15z"/></svg>