<svg xmlns="http://www.w3.org/2000/svg" preserveAspectRatio="xMidYMid" width="36" height="36" viewBox="0 0 36 36"><defs><style>.cls-1{fill:#f47610;fill-rule:evenodd}</style></defs><path d="M18 36C8.06 36 0 27.94 0 18S8.06 0 18 0s18 8.06 18 18-8.06 18-18 18zm6.41-22.06a1.633 1.633 0 0 0 0-2.32 1.654 1.654 0 0 0-2.33 0l-4.05 4.034-4.183-4.178a1.674 1.674 0 1 0-2.366 2.365l4.18 4.175-4.063 4.043a1.634 1.634 0 0 0 0 2.318c.644.64 1.687.64 2.33 0l4.057-4.038 4.148 4.145a1.674 1.674 0 1 0 2.366-2.365l-4.143-4.14 4.056-4.04z" class="cls-1"/></svg>