<svg xmlns="http://www.w3.org/2000/svg" preserveAspectRatio="xMidYMid" width="80" height="80" viewBox="0 0 80 80"><defs><style>.cls-1{fill:#62dc42;fill-rule:evenodd}</style></defs><path d="M40 80C17.91 80 0 62.09 0 40S17.91 0 40 0s40 17.91 40 40-17.91 40-40 40zm20-49.707C60 26.258 57.033 23 53 23h-4l-.29-1.053h-3.692C44.41 19.38 42.218 17 39.47 17c-2.747 0-5.095 2.38-5.702 4.947L30 22v1h-3c-4.033 0-7 3.258-7 7.293V55.68c0 4.035 3.28 7.32 7.314 7.32h25.372C56.72 63 60 59.715 60 55.68V30.294zM53 60H27c-2.55 0-4-1.448-4-4V30c0-2.552 1.448-4 4-4h3l.075 7.13H48.71L49 26h4c2.552 0 4 1.448 4 4v26c0 2.552-1.448 4-4 4zm-2.576-24.868a1.346 1.346 0 0 0-1.855.412L38.924 50.71l-6.295-5.04a1.343 1.343 0 1 0-1.677 2.1l7.462 5.974a1.336 1.336 0 0 0 1.97-.328l10.45-16.428c.4-.626.214-1.457-.41-1.856zM32.45 24.365h3.77v-1.54c0-1.73 1.523-3.368 3.25-3.368 1.73 0 3.018 1.638 3.018 3.368v1.54h3.732v6.27H32.45v-6.27z" class="cls-1"/></svg>