<svg xmlns="http://www.w3.org/2000/svg" preserveAspectRatio="xMidYMid" width="30" height="34" viewBox="0 0 30 34"><defs><style>.cls-1{fill:#33c600;fill-rule:evenodd}</style></defs><path d="M15 34c-8.284 0-15-3.358-15-7.5 0-2.67 2.798-5.008 7-6.337v2.008c-3.04 1.008-5 2.57-5 4.33C2 29.538 7.82 32 15 32s13-2.462 13-5.5c0-1.76-1.96-3.322-5-4.33v-2.007c4.202 1.33 7 3.667 7 6.337 0 4.142-6.716 7.5-15 7.5zm.526-6.506L15 28l-.52-.5C14.094 27.138 5 18.458 5 10 5 4.462 9.484.008 15 .008S25.003 4.513 25.003 10.05c0 8.236-9.09 17.072-9.477 17.444zM15 1.988c-4.407 0-8 3.762-8 8.012 0 6.053 6.187 13.226 8 15 1.808-1.807 8-9.112 8-15 0-4.25-3.593-8.012-8-8.012zm-5.016 9.01c0-2.753 2.25-4.994 5.015-4.994 2.766 0 5.017 2.24 5.017 4.995 0 2.754-2.25 4.995-5.018 4.995-2.766 0-5.016-2.24-5.016-4.996zM18 11a2.997 2.997 0 0 0-3-2.986c-1.655 0-3 1.34-3 2.987a2.996 2.996 0 0 0 3 2.987c1.654 0 3-1.34 3-2.988z" class="cls-1"/></svg>