<svg xmlns="http://www.w3.org/2000/svg" preserveAspectRatio="xMidYMid" width="32" height="32" viewBox="0 0 32 32"><defs><style>.cls-1{fill:#ffca4b;fill-opacity:.9;fill-rule:evenodd}</style></defs><path d="M30.408 20.268c-.58.12-1.204.235-1.864.342-.124.34-.263.673-.414 1 .39.542.75 1.064 1.075 1.56a2 2 0 0 1-.258 2.51l-3.267 3.267a1.998 1.998 0 0 1-2.51.258 41.124 41.124 0 0 1-1.56-1.075c-.326.15-.658.29-.996.413-.11.67-.226 1.297-.348 1.873A2 2 0 0 1 18.31 32h-4.62a2 2 0 0 1-1.956-1.584 39.062 39.062 0 0 1-.348-1.873c-.336-.124-.668-.26-.993-.41a38.69 38.69 0 0 1-1.57 1.077 1.998 1.998 0 0 1-2.502-.263L3.052 25.68a2 2 0 0 1-.263-2.502c.32-.495.68-1.02 1.078-1.57a13.46 13.46 0 0 1-.41-.994c-.67-.11-1.298-.226-1.874-.348A2 2 0 0 1 0 18.31v-4.62a2 2 0 0 1 1.584-1.956c.576-.123 1.203-.24 1.873-.348.124-.337.26-.668.41-.993a38.003 38.003 0 0 1-1.077-1.57 2 2 0 0 1 .263-2.504L6.32 3.052a1.998 1.998 0 0 1 2.502-.263c.494.32 1.02.68 1.57 1.078.326-.15.658-.287.994-.41.11-.67.225-1.298.348-1.874A2 2 0 0 1 13.69 0h4.62a2 2 0 0 1 1.956 1.584c.122.576.24 1.203.348 1.873.336.124.668.26.993.41.55-.396 1.076-.757 1.57-1.077a1.998 1.998 0 0 1 2.502.263l3.268 3.266a2 2 0 0 1 .263 2.502c-.32.495-.68 1.02-1.078 1.57.15.328.288.66.412 1 .66.105 1.283.22 1.864.34A2 2 0 0 1 32 13.69v4.62a2 2 0 0 1-1.592 1.958zM30 13.69a45.027 45.027 0 0 0-2.99-.507 11.26 11.26 0 0 0-1.23-2.972 42.828 42.828 0 0 0 1.753-2.476l-3.267-3.267c-.766.498-1.6 1.09-2.477 1.754-.916-.542-1.912-.958-2.97-1.228-.15-1.09-.32-2.098-.51-2.992h-4.62c-.19.894-.36 1.9-.51 2.992-1.058.27-2.054.686-2.97 1.23a42.828 42.828 0 0 0-2.476-1.755L4.467 7.734c.498.766 1.09 1.6 1.754 2.477-.542.916-.958 1.912-1.228 2.97-1.09.15-2.098.32-2.992.51v4.62c.894.19 1.9.36 2.992.51.27 1.058.686 2.054 1.23 2.97a42.828 42.828 0 0 0-1.755 2.476l3.267 3.267c.766-.498 1.6-1.09 2.477-1.754.916.542 1.912.958 2.97 1.228.15 1.092.32 2.098.51 2.992h4.62c.19-.894.36-1.9.51-2.992 1.06-.27 2.057-.687 2.973-1.23.87.658 1.7 1.248 2.473 1.755l3.267-3.267a45.18 45.18 0 0 0-1.756-2.473c.544-.917.96-1.916 1.232-2.976 1.08-.15 2.085-.32 2.99-.507v-4.62zM16 22a6 6 0 1 1 0-12 6 6 0 0 1 0 12zm0-10a4 4 0 1 0 0 8 4 4 0 0 0 0-8z" class="cls-1"/></svg>