<svg xmlns="http://www.w3.org/2000/svg" preserveAspectRatio="xMidYMid" width="34" height="28" viewBox="0 0 34 28"><defs><style>.cls-1{fill:#824bff;fill-rule:evenodd}</style></defs><path d="M21.496 13.047a7.3 7.3 0 0 0 2.797-5.742C24.293 3.277 21.025 0 17.008 0 12.99 0 9.723 3.278 9.723 7.306a7.296 7.296 0 0 0 2.797 5.742c-4.48 1.794-7.654 6.18-7.654 11.3v2.435c0 .673.543 1.217 1.214 1.217h21.856c.67 0 1.213-.545 1.213-1.218v-2.434c0-5.123-3.176-9.507-7.654-11.3zm-9.758-5.752c0-2.914 2.363-5.284 5.27-5.284 2.906 0 5.27 2.37 5.27 5.285 0 2.914-2.364 5.284-5.27 5.284-2.907 0-5.27-2.37-5.27-5.285zm15.585 18.707H6.69V24.71c0-5.704 4.63-10.344 10.32-10.344 5.686 0 10.313 4.64 10.313 10.343V26zM7.598 14.176l.237-.057c.51-.172.872-.62.872-1.146 0-.51-.34-.943-.82-1.126a3.655 3.655 0 0 1-2.14-3.324c0-1.623 1.4-2.99 2.86-3.464a7.294 7.294 0 0 1 1.137-2.173 8.38 8.38 0 0 1 .27-.42c-.097-.006-.19-.03-.29-.03-3.348 0-6.073 2.73-6.073 6.087 0 1.54.587 2.985 1.58 4.084a9.7 9.7 0 0 0-5.22 8.64v1.882c0 .673.542 1.218 1.213 1.218h2.175c0-.834.085-1.37.245-2.156H2.106v-.945a7.262 7.262 0 0 1 5.492-7.07zm21.174-1.568a6.09 6.09 0 0 0 1.58-4.084c0-3.357-2.724-6.088-6.072-6.088-.1 0-.195.024-.293.03.094.136.185.277.27.42.494.648.88 1.38 1.136 2.173 1.463.473 3.062 1.84 3.062 3.463 0 1.432-.84 2.733-2.14 3.324-.48.183-.82.618-.82 1.126 0 .526.365.974.873 1.145l.237.057a7.262 7.262 0 0 1 5.493 7.072v.945h-1.74c.16.787.244 1.322.244 2.156h2.176c.67 0 1.214-.545 1.214-1.218v-1.883a9.696 9.696 0 0 0-5.22-8.64z" class="cls-1"/></svg>