<svg xmlns="http://www.w3.org/2000/svg" preserveAspectRatio="xMidYMid" width="90" height="90" viewBox="0 0 90 90"><defs><style>.cls-1{fill:#ffa656;fill-rule:evenodd}</style></defs><path d="M44.99 90.002c-24.853 0-45-20.147-45-45C-.01 20.147 20.137 0 44.99 0s45 20.148 45 45c0 24.855-20.147 45.002-45 45.002zM44.424 35.8c0-2.38-.814-6.404-7.8-4.026-6.98 2.39-12.97 10.765-12.97 10.765-4.168 5.564-3.616 9.865-3.616 9.865C21.078 61.9 31.16 64.507 39 65.125c8.25.646 19.383-2.847 22.76-10.024 3.375-7.188-2.76-10.033-4.71-10.422-1.947-.378-1-1.426-1-1.426s1.902-3.14-.378-5.422c-2.826-2.827-9.692.36-9.692.36-2.622.814-1.927-.372-1.556-2.39zM59.7 39.987c0 .75.61 1.348 1.36 1.348a1.34 1.34 0 0 0 1.322-1.133.55.55 0 0 0 .018-.143c1.006-9.053-7.41-7.495-7.41-7.495-.748 0-1.347.605-1.347 1.36 0 .742.6 1.347 1.346 1.347 6.045-1.335 4.71 4.715 4.71 4.715zm.378-14.45c-2.91-.684-5.903-.096-6.74.065-.066.006-.127.067-.186.08-.03.005-.048.035-.048.035a1.98 1.98 0 0 0-1.43 1.905c0 1.08.873 1.966 1.962 1.966 0 0 1.06-.143 1.778-.424.712-.287 6.74-.214 9.734 4.818 1.634 3.672.718 6.13.604 6.525 0 0-.39.954-.39 1.893 0 1.085.875 1.766 1.958 1.766.905 0 1.665-.123 1.887-1.655h.012c3.213-10.72-3.935-15.758-9.142-16.974zm-5.64 25.935c0 5.468-6.632 10.602-14.827 10.974-8.188.383-14.808-3.727-14.808-9.196 0-5.475 6.62-9.866 14.81-10.244 8.194-.377 14.827 3.002 14.827 8.466zm-16.46-4.86c-8.237.965-7.285 8.687-7.285 8.687s-.085 2.443 2.208 3.69c4.82 2.61 9.782 1.03 12.29-2.21 2.508-3.242 1.036-11.126-7.213-10.167zm1.34 6.566c-.287-.455-.18-1.186.347-1.57.61-.454 1.246-.323 1.52.133.276.468.08 1.168-.43 1.57-.52.39-1.162.336-1.437-.132zm-3.418 4.27c-1.538.182-2.777-.705-2.777-1.993 0-1.282 1.1-2.625 2.64-2.785 1.766-.17 2.915.85 2.915 2.138 0 1.282-1.246 2.467-2.778 2.64z" class="cls-1"/></svg>