<svg xmlns="http://www.w3.org/2000/svg" preserveAspectRatio="xMidYMid" width="90" height="90" viewBox="0 0 90 90"><defs><style>.cls-1{fill:#35c725;fill-rule:evenodd}</style></defs><path d="M45.004 90.002c-24.853 0-45-20.147-45-45C.004 20.147 20.15 0 45.004 0s45 20.148 45 45c0 24.855-20.147 45.002-45 45.002zm-6.34-62.782c-8.56 0-15.57 5.86-15.57 13.303 0 4.296 2.333 7.824 6.23 10.56l-1.557 4.705 5.443-2.742c1.948.388 3.51.786 5.455.786.488 0 .973-.024 1.453-.062a11.71 11.71 0 0 1-.48-3.278c0-6.834 5.84-12.38 13.238-12.38.505 0 1.004.038 1.5.093-1.348-6.302-8.055-10.985-15.71-10.985zm15.197 11.733c-7.407 0-13.242 5.097-13.242 11.35 0 6.266 5.835 11.353 13.243 11.353 1.552 0 3.116-.393 4.673-.785l4.27 2.35-1.17-3.91c3.126-2.355 5.454-5.478 5.454-9.006 0-6.254-6.23-11.35-13.226-11.35zm4.272 9.394c-.77 0-1.547-.775-1.547-1.565 0-.78.777-1.565 1.547-1.565 1.167 0 1.95.785 1.95 1.565 0 .79-.783 1.565-1.95 1.565zm-8.565 0c-.775 0-1.557-.775-1.557-1.565 0-.78.782-1.565 1.557-1.565 1.178 0 1.95.785 1.95 1.565 0 .79-.772 1.565-1.95 1.565zM44.504 37.78c-1.167 0-2.338-.784-2.338-1.957 0-1.177 1.17-1.952 2.338-1.952 1.172 0 1.95.776 1.95 1.953 0 1.173-.778 1.958-1.95 1.958zm-10.898 0c-1.167 0-2.345-.784-2.345-1.957 0-1.177 1.18-1.952 2.346-1.952 1.167 0 1.944.776 1.944 1.953 0 1.173-.777 1.958-1.944 1.958z" class="cls-1"/></svg>