<svg xmlns="http://www.w3.org/2000/svg" viewBox="468.7 27.5 50 49.8"><path fill-rule="evenodd" clip-rule="evenodd" fill="#4FBEFA" d="M516.4 55.1l-20.5 20.3c-2.5 2.5-6.6 2.5-9.2-.1l-16.2-16.1a6.37 6.37 0 0 1-.1-9.1L491 29.8c1.6-1.6 1.9-2.3 3.5-2.3l20.9.2c1.7 0 3 1.4 3 3l.2 20.8c0 1.6-.9 2.3-2.2 3.6zM472.5 57L489 73.4c1.3 1.3 3.4 1.3 4.6.1l2.7-2.6-21.2-21.1-2.8 2.8c-1.2 1.2-1.1 3.1.2 4.4zm43-24.9c0-.8-.7-1.5-1.5-1.5l-18.2-.3c-.8 0-2 .9-2.7 1.6l-15.7 15.7 21.2 21.1L514.2 53c.8-.8 1.6-2 1.5-2.8l-.2-18.1zm-15.6 14.1c-2.3-2.3-2.3-6.1 0-8.4 2.3-2.3 6.1-2.3 8.5 0 2.3 2.3 2.3 6.1 0 8.4-2.4 2.3-6.2 2.3-8.5 0zm6.4-6.3c-1.2-1.2-3.1-1.2-4.2 0-1.2 1.2-1.2 3.1 0 4.2 1.2 1.2 3.1 1.2 4.2 0s1.1-3.1 0-4.2z"/></svg>