<svg xmlns="http://www.w3.org/2000/svg" preserveAspectRatio="xMidYMid" width="30" height="30" viewBox="0 0 30 30"><defs><style>.cls-1{fill:#fa2855;fill-rule:evenodd}</style></defs><path d="M24 30H6a6 6 0 0 1-6-6V6a6 6 0 0 1 6-6h18a6 6 0 0 1 6 6v18a6 6 0 0 1-6 6zM9.572 5C8.314 8.32 6.195 11.57 4.01 13.658c.287.373.75 1.23.927 1.582A23.835 23.835 0 0 0 7.3 12.426V24.95h1.565V10.03c.86-1.428 1.61-2.988 2.25-4.57l-1.543-.46zM24.424 17.13v-1.494h-6.18V12.91h4.966V5.968H11.845v6.942h4.767v2.724h-6.4v1.494h5.45c-1.478 2.33-3.817 4.503-6.09 5.624.375.307.86.9 1.147 1.296 2.14-1.23 4.347-3.427 5.892-5.844v6.81h1.633V18.14c1.478 2.395 3.597 4.68 5.583 5.954.287-.417.817-1.01 1.17-1.296-2.12-1.143-4.348-3.36-5.804-5.668h5.23zM13.39 7.44h8.187v4.02H13.39V7.44z" class="cls-1"/></svg>