<svg xmlns="http://www.w3.org/2000/svg" preserveAspectRatio="xMidYMid" width="36" height="18.031" viewBox="0 0 36 18.031"><defs><style>.cls-1{fill:#fff;fill-rule:evenodd}</style></defs><path d="M32.905 11.23c-1.045.08-1.937-.544-1.993-1.398-.056-.853.745-1.608 1.79-1.688 1.045-.08 1.938.548 1.994 1.4.056.853-.746 1.608-1.79 1.687zm-.64-3.6c-.892.242-1.765-.15-1.95-.874-.185-.726.387-1.51 1.277-1.752.89-.243 1.763.15 1.947.874.186.726-.386 1.51-1.276 1.752zm-3.42-3.562c-.32-.6.02-1.426.762-1.836.742-.41 1.603-.257 1.922.346.32.602-.02 1.425-.764 1.837-.74.41-1.6.256-1.92-.347zM26.81 2.042c-.363-.466-.193-1.222.38-1.686.576-.466 1.337-.467 1.7 0 .365.465.194 1.222-.38 1.686-.575.467-1.337.466-1.7 0zm-2.05 14.745c-1.337.15-2.365-.284-3.373-.77-.743-.356-1.647-.877-2.466-1.2a9.362 9.362 0 0 0-5.055-.554c-3.507.586-6.832 4.307-10.453 3.664-3.182-.566-4.52-6.075-2.37-8.54C1.982 8.31 3.08 7.75 4.274 7.4c-.244.19-.48.41-.705.666C1.806 10.09 2.9 14.608 5.51 15.07c2.97.527 5.698-2.523 8.574-3.005a7.727 7.727 0 0 1 4.146.453c.672.267 1.414.694 2.024.986.827.398 1.67.754 2.767.632 3.47-.383 4.715-3.898 4.112-6.886-.35-1.725-1.253-3.72-3.307-4.75a4.38 4.38 0 0 0-1.38-.426c1.128-.13 2.21-.015 3.294.53 2.505 1.253 3.606 3.684 4.03 5.788.737 3.645-.78 7.928-5.01 8.395zm8.56-4.767c1.665.21 2.87 1.485 2.692 2.842-.178 1.36-1.67 2.29-3.33 2.078-1.664-.21-2.87-1.485-2.692-2.842.176-1.358 1.67-2.288 3.33-2.078z" class="cls-1"/></svg>