<svg xmlns="http://www.w3.org/2000/svg" preserveAspectRatio="xMidYMid" width="33.875" height="34" viewBox="0 0 33.875 34"><defs><style>.cls-1{fill:#f53058;fill-rule:evenodd}</style></defs><path d="M33.887 34h-2c-.517-7.816-7.003-14-14.95-14-7.946 0-14.432 6.184-14.95 14h-2c.424-7.244 5.368-13.273 12.058-15.284A9.99 9.99 0 0 1 6.938 10c0-5.523 4.477-10 10-10 5.522 0 10 4.477 10 10a9.99 9.99 0 0 1-5.108 8.716c6.69 2.01 11.634 8.04 12.057 15.284zm-8.95-24a8 8 0 1 0-16 0 8 8 0 0 0 16 0z" class="cls-1"/></svg>