<svg xmlns="http://www.w3.org/2000/svg" viewBox="424.1 0 112.2 80.2"><path fill="#84E263" d="M520.3 15.3c-5.5 3.5-7.7 6.1-11.1 5.9-3.2-.2-8.8-3.5-11.1-4.5-3.7-1.6-8.8-2.4-12-.5-2.6 1.8-.3 4.7.6 5.8s5.5 4.5 6.7 6.3c.8 1 1.1 2.9-.5 3.1-3.1.8-5.5-.3-7.4-.8-1.9-.3-4-1.8-7.2-1.6-4 .3-2.6 3.7-2.6 3.7s3.4 10 12.2 12c7.9 1.9 43.5-16.1 47.6-22.7 3.8-6.3-7.5-11.7-15.2-6.7zm6.6 8.8c-4.2 3.1-13.8 8.5-26 13.5-4 1.6-9.3 3.4-11.7 2.7-2.7-.8-6.4-2.9-7.2-5-.5-1-.5-2.2.8-1.8 1.6.6 4 1.6 5.9 1.9 2.2.3 4.3 0 4.3 0 3.5-.5 4.2-1.4 5-2.4 1-1.1.6-2.7 0-5-.6-2.4-3.5-4.5-3.5-4.5s-7.6-4.5-3.5-5.1c2.6-.5 6.1 2.6 8.5 4 1.4 1 6.1 2.9 8.4 3.2 4.2.6 8.2-1.3 13.2-5.3 5-4.6 15.9-3.1 5.8 3.8zm-10.4 18.3c-1.3 0-2.2 1.1-2.2 2.4-2.3 17.2-17.8 30.7-35.7 30.7-13.5 0-25.1-7.7-31.2-18.6 15.9-3.4 25.1-8.2 26.3-9.8.8-.8.8-4.5-4.7-1.9-7.1 3.5-16.1 5.8-23.6 7.6-1.4-4-2.7-8.2-2.7-12.7 0-19.4 16.2-35.8 35.8-35.8 8 0 16.4 3.1 22.3 8 0 0 1 .8 2.1.8 1.3 0 1.9-.6 1.9-2.1 0-.6-.2-1.1-.6-1.6l-.2-.2-.1-.2c-6.9-5.6-15.7-9-25.4-9-22.2 0-40.2 18-40.2 40 0 4.8.8 9.3 2.4 13.5-1.8.3-3.4.8-4.7 1-5.5.3-11.4 1-4.7-7.4 3.2-4 3.9-5.9 2.4-7.1-1.6-.8-2.9.6-2.9.6s-5.6 6.6-6.6 11.2c-.5 2.2-2.1 7.7 9.5 7.1 3.1-.2 6.1-.5 9-1 6.6 13.2 20.2 22.2 36 22.2 20.1 0 37.1-14.6 40-33.7.2-1 .2-1 .2-1.6-.2-1.4-1.3-2.4-2.4-2.4z"/></svg>