<svg xmlns="http://www.w3.org/2000/svg" preserveAspectRatio="xMidYMid" width="32.531" height="29" viewBox="0 0 32.531 29"><defs><style>.cls-1{fill:#5f5f5f;fill-rule:evenodd}</style></defs><path d="M4.375 0C.13 4.245-.61 12.014.375 14c.987 1.99 3.893 3 6 3 2.66-.105 4.07-1.055 5-2 .84.945 2.52 2 5 2 2.584 0 4.448-1.26 5.255-2.215 1.128.91 3.438 2.215 5.745 2.215 1.512 0 2.945-.792 4-2 3.405-3.405-1.715-14.575-2-15h-25zm25 14c-.71.82-1.017 1-2 1-2.223 0-4.485-1.527-5-2V7l-1.917-.03h-.01L20.375 13c-.482.65-1.882 2-4 2-2.39 0-3.663-1.487-4-2V7h-2v6c-.433.556-1.328 1.89-4 2-1.18 0-3.213-.408-4-2-.788-1.588.454-8.454 3-11h22c1.838 1.838 4.43 9.214 2 12zm-2 5v8h-22l.004-8.117c-.002-.487-.317-.632-.808-.632-.49 0-1.2.154-1.202.65l.005 7.1c0 1.893 1.13 3 3 3h20c1.87 0 3-1.107 3-3v-7h-2z" class="cls-1"/></svg>