<svg xmlns="http://www.w3.org/2000/svg" preserveAspectRatio="xMidYMid" width="26" height="29.594" viewBox="0 0 26 29.594"><defs><style>.cls-1{fill:#5f5f5f;fill-rule:evenodd}</style></defs><path d="M19 5.594c1.866-1.523 3.316-3.37 2.467-4.635-.925-1.38-3.552-1.23-5.824.28-1.015.674-1.847 1.52-2.342 2.383-.13.23-.224.457-.304.68-.377-1.055-1.284-2.168-2.63-3.064C8.088-.274 5.463-.423 4.54.96c-.517.772-.462 1.79.153 2.865.373.65 1.5 1.383 2.307 1.77H0v6h2v17.992h22V11.594h2v-6h-7zm-3.96-.984c.338-.59.963-1.215 1.713-1.715.884-.587 1.84-.938 2.554-.938.348 0 .483.087.496.108.14.206-.33 1.416-1.94 2.487-.884.588-1.84.94-2.556.94-.345 0-.48-.087-.494-.11-.02-.028-.057-.278.227-.772zM6.205 2.066c.013-.022.148-.11.496-.11.716 0 1.67.352 2.555.94 1.61 1.07 2.078 2.28 1.94 2.487-.014.022-.15.108-.496.108-.716 0-1.67-.35-2.556-.938-.75-.5-1.375-1.124-1.713-1.714-.282-.494-.245-.744-.225-.772zM9 27.596H4V11.594h5v16.002zM9 9.594H2v-2h7v2zm6 18.002h-4V7.594h4v20.002zm7 0h-5V11.594h5v16.002zm2-18.002h-7v-2h7v2z" class="cls-1"/></svg>