<svg xmlns="http://www.w3.org/2000/svg" viewBox="439.5 0 80.6 80"><path fill="#FE4949" d="M520.2 64.9s-7.9 1.6-16.1 3.2C498.8 74 493.3 80 493.3 80l-11.6-19.6c-.6 0-1.3.2-1.9.2s-1.3 0-1.9-.2L466.3 80s-5.3-5.9-10.8-11.9c-8-1.6-16.1-3.2-16.1-3.2L452 43.7c-2.1-4-3.2-8.5-3.2-13.3C449.2 13.5 463 0 480 0s30.8 13.5 30.8 30.2c0 4.8-1.1 9.3-3.2 13.3l12.6 21.4zM494.1 71s3.9-3.7 7.6-7.2c5.1-1.4 10.3-2.9 10.3-2.9l-7.2-12.4c-4.2 5.5-10.3 9.5-17.2 11.1l6.5 11.4zm-45.9-10.1s5.1 1.4 10.3 2.9c3.7 3.5 7.6 7.2 7.6 7.2l6.6-11.2c-6.9-1.8-13-5.6-17.2-11.1l-7.3 12.2zM480 5c-13.8 0-25.1 11.2-25.1 25.1s11.2 25.1 25.1 25.1 25.1-11.2 25.1-25.1S493.8 5 480 5zm0 42.6c-9.6 0-17.5-7.9-17.5-17.5s7.9-17.5 17.5-17.5 17.5 7.9 17.5 17.5-7.9 17.5-17.5 17.5zm0-30.1c-6.9 0-12.5 5.6-12.5 12.5s5.6 12.5 12.5 12.5 12.5-5.6 12.5-12.5-5.6-12.5-12.5-12.5z"/></svg>