<svg xmlns="http://www.w3.org/2000/svg" preserveAspectRatio="xMidYMid" width="24" height="24" viewBox="0 0 24 24"><defs><style>.cls-1{fill:#6bacfe;fill-rule:evenodd}</style></defs><path d="M12 24C5.373 24 0 18.627 0 12S5.373 0 12 0s12 5.373 12 12-5.373 12-12 12zm0-22C6.477 2 2 6.477 2 12s4.477 10 10 10 10-4.477 10-10S17.523 2 12 2zm.934 13.55h-1.54c-.436-3.305 2.927-4.52 2.927-6.78 0-1.14-.702-2.053-2.05-2.053-.95 0-1.787.456-2.452 1.216L8.83 7.02c.874-1.006 2.09-1.747 3.63-1.747 2.146 0 3.55 1.31 3.55 3.382 0 2.792-3.418 3.913-3.076 6.896zm-.722 1.787c.703 0 1.273.57 1.273 1.348 0 .78-.57 1.31-1.273 1.31-.684 0-1.254-.53-1.254-1.31 0-.778.57-1.348 1.254-1.348z" class="cls-1"/></svg>