<svg xmlns="http://www.w3.org/2000/svg" preserveAspectRatio="xMidYMid" width="80" height="80" viewBox="0 0 80 80"><defs><style>.cls-1{fill:#f47610;fill-rule:evenodd}</style></defs><path d="M40 80C17.91 80 0 62.09 0 40S17.91 0 40 0s40 17.91 40 40-17.91 40-40 40zm24.112-49.342a23.93 23.93 0 0 0-5.145-7.63 23.943 23.943 0 0 0-7.633-5.14A23.872 23.872 0 0 0 41.986 16a23.95 23.95 0 0 0-16.98 7.03 23.913 23.913 0 0 0-6.346 11.247l-1.196-2.692a1.812 1.812 0 0 0-2.39-.92c-.44.197-.78.554-.953 1.005a1.8 1.8 0 0 0 .036 1.384l3.71 8.346c.02.043.04.088.065.133l.008.014c.022.04.043.075.064.11.002 0 .004.005.006.008l.058.084a1.846 1.846 0 0 0 .07.09l.064.07.006.008.033.034c.01.012.023.024.035.036l.005.004c.015.014.03.03.046.043l.038.033.068.054.02.015c.03.023.064.046.1.07l.006.003.1.06.012.005c.074.04.15.074.227.103a2.58 2.58 0 0 0 .11.037l.012.003.01.003c.033.01.065.02.096.026l.016.004h.007a1.6 1.6 0 0 0 .145.026h.007l.065.008h.007a.78.78 0 0 0 .046.004l.067.002h.005l.036.002c.048 0 .097-.002.152-.007h.01c.05-.005.098-.012.146-.02l.022-.004.137-.03.02-.006h.004c.035-.01.07-.023.108-.036l.007-.002a2.685 2.685 0 0 0 .127-.05l.004-.002.015-.008a2.038 2.038 0 0 0 .158-.08c.006-.004.012-.008.018-.01l.004-.004c.098-.06.19-.126.273-.2l6.874-6.02a1.81 1.81 0 1 0-2.385-2.72l-3.264 2.857c1.826-9.49 10.27-16.533 20.028-16.533C53.232 19.617 62.38 28.76 62.38 40c0 11.24-9.148 20.383-20.394 20.383A20.4 20.4 0 0 1 28.72 55.48a1.816 1.816 0 0 0-1.18-.435 1.81 1.81 0 0 0-1.178 3.182A24.027 24.027 0 0 0 41.987 64c3.24 0 6.386-.635 9.348-1.887a23.91 23.91 0 0 0 7.632-5.142A23.928 23.928 0 0 0 66 40c0-3.24-.635-6.382-1.888-9.342zm-29.383 5.9a.35.35 0 0 0-.352.35v2.918c0 .193.157.35.35.35h5.442v2.42h-5.44a.35.35 0 0 0-.352.352v2.917c0 .193.157.35.35.35h5.442v5.44a1.81 1.81 0 0 0 3.62 0v-5.44h5.44a.35.35 0 0 0 .35-.35v-2.917a.35.35 0 0 0-.35-.35h-5.44v-2.422h5.44a.35.35 0 0 0 .35-.35v-2.918a.35.35 0 0 0-.35-.35h-2.882l2.953-2.95a1.81 1.81 0 1 0-2.558-2.56L41.98 35.81l-4.764-4.76a1.797 1.797 0 0 0-1.28-.53 1.81 1.81 0 0 0-1.28 3.088l2.953 2.95h-2.88z" class="cls-1"/></svg>