<svg xmlns="http://www.w3.org/2000/svg" preserveAspectRatio="xMidYMid" width="80" height="80" viewBox="0 0 80 80"><defs><style>.cls-1{fill:#62dc42;fill-rule:evenodd}</style></defs><path d="M40 80C17.91 80 0 62.09 0 40S17.91 0 40 0s40 17.91 40 40-17.91 40-40 40zm0-65c-13.784 0-25 11.216-25 25s11.216 25 25 25 25-11.216 25-25-11.216-25-25-25zm0 47.147c-12.212 0-22.147-9.935-22.147-22.147 0-12.212 9.934-22.147 22.147-22.147 12.212 0 22.147 9.935 22.147 22.147 0 12.212-9.935 22.147-22.147 22.147zm-9.507-31.263a2.817 2.817 0 1 0 0 5.633 2.817 2.817 0 0 0 0-5.633zm.12 14.2l-2.174 1.834c3.006 3.275 7.336 5.313 12.12 5.262a16.17 16.17 0 0 0 11.47-4.942l-2.055-1.964a13.332 13.332 0 0 1-9.445 4.06 13.345 13.345 0 0 1-9.917-4.25zm18.894-14.2a2.817 2.817 0 1 0 0 5.633 2.817 2.817 0 0 0 0-5.633z" class="cls-1"/></svg>