<?xml version="1.0" encoding="utf-8"?>
<!-- Generator: Adobe Illustrator 19.1.0, SVG Export Plug-In . SVG Version: 6.00 Build 0)  -->
<svg version="1.1" id="图层_1" xmlns="http://www.w3.org/2000/svg" xmlns:xlink="http://www.w3.org/1999/xlink" x="0px" y="0px"
	 viewBox="0 0 60 30" style="enable-background:new 0 0 60 30;" xml:space="preserve">
<style type="text/css">
	.st0{fill:#fa2855;}
</style>
<g>
	<g>
		<path class="st0" d="M25.8,7h-6.4v2.6h6.4V7z M25.8,11h-6.4v2.7h6.4V11z M52,0H8C3.6,0,0,3.6,0,8v14c0,4.4,3.6,8,8,8h44
			c4.4,0,8-3.6,8-8V8C60,3.6,56.4,0,52,0z M31.9,5.9h7.2v13.2h-1.3V7.4h-4.6v11.7h-1.3V5.9z M16.5,16.6c0,1.1-0.3,2.1-0.9,2.5
			c-0.3,0.2-0.7,0.4-1.2,0.4c-0.4,0.1-1,0.1-1.5,0c0-0.4-0.2-1-0.4-1.5c0.5,0,0.9,0.1,1.3,0c0.3,0,0.5-0.1,0.7-0.2
			c0.3-0.2,0.5-0.9,0.5-1.5c0-1.2-0.4-2.7-2-4.5c0.6-1.6,1.3-3.5,1.7-4.9h-3.2v17.7h-1.5V5.5h5.3l0.2-0.1l1.1,0.6
			c-0.7,1.8-1.5,3.9-2.2,5.7C16.1,13.6,16.5,15.2,16.5,16.6z M28.1,24.5c-3.4-1.6-5.5-5-6.6-9.4h-2.1v7.2l3.9-0.9
			c0,0.5,0,1.1,0.1,1.5c-4.5,1.2-5.2,1.5-5.6,1.7c-0.1-0.4-0.5-1-0.7-1.3c0.4-0.2,0.8-0.6,0.8-1.5V5.6h9.6v9.6h-4.5
			c0.3,1.2,0.7,2.3,1.3,3.3c1.1-0.8,2.5-1.8,3.4-2.6l1.1,1.1c-1.1,0.9-2.6,1.9-3.8,2.6c1.1,1.6,2.5,2.8,4.2,3.5
			C28.8,23.5,28.3,24.1,28.1,24.5z M31.9,24.7c-0.2-0.3-0.6-0.7-0.9-1c3.7-2.2,3.9-6.1,3.9-8.8V9.1h1.3v5.7
			C36.2,18,35.7,22.1,31.9,24.7z M38.8,24.3c-0.6-1-1.9-2.7-3-3.9l1.1-0.8c1.1,1.1,2.4,2.8,3,3.8L38.8,24.3z M40.2,18.6
			c0.3-0.1,0.6-0.6,0.9-1.3c0.3-0.7,1.3-3.5,1.8-6l1.5,0.4c-0.6,2.2-1.4,4.5-2.2,6.4l3.6-0.7c-0.3-0.9-0.7-1.9-1.1-2.8l1.2-0.4
			c0.8,1.7,1.6,4,1.9,5.3L46.5,20c-0.1-0.4-0.2-0.9-0.3-1.4c-4.4,0.9-5.1,1.1-5.5,1.4C40.6,19.7,40.4,19,40.2,18.6z M50.5,8.9
			c-0.3,10.4-0.6,13.8-1.3,14.9c-0.5,0.6-0.9,0.8-1.6,0.9c-0.6,0.1-1.7,0-2.8,0c0-0.5-0.2-1.2-0.5-1.6c1.2,0.1,2.2,0.1,2.7,0.1
			c0.4,0,0.6-0.1,0.8-0.4c0.6-0.7,0.9-4.1,1.2-13.2h-6.4c-0.6,1.3-1.3,2.5-2,3.4c-0.3-0.3-0.9-0.8-1.3-1c1.5-1.8,2.7-4.6,3.4-7.4
			L44.1,5c-0.3,1.1-0.6,2.1-1,3.1h7.3C50.5,8.1,50.5,8.7,50.5,8.9z"/>
	</g>
</g>
</svg>
