<svg xmlns="http://www.w3.org/2000/svg" viewBox="0 0 54 34"><path fill="#5E5E5F" d="M37 34H17c-2.2 0-4-1.8-4-4V10c0-2.2 1.8-4 4-4h3V4h2.7c.9-1.2 2.5-2 4.3-2s3.4.8 4.3 2H34v2h3c2.2 0 4 1.8 4 4v20c0 2.2-1.8 4-4 4zM32 6h-2.2c0-1.1-1.2-2-2.8-2s-2.8.9-2.8 2H22v4h10V6zm7 4c0-1.1-.9-2-2-2h-3v4H20V8h-3c-1.1 0-2 .9-2 2v20c0 1.1.9 2 2 2h20c1.1 0 2-.9 2-2V10zm-5 18H20c-.6 0-1-.4-1-1s.4-1 1-1h14c.6 0 1 .4 1 1s-.4 1-1 1zm0-5H20c-.6 0-1-.4-1-1s.4-1 1-1h14c.6 0 1 .4 1 1s-.4 1-1 1zm0-5H20c-.6 0-1-.4-1-1s.4-1 1-1h14c.6 0 1 .4 1 1s-.4 1-1 1z"/></svg>