<svg xmlns="http://www.w3.org/2000/svg" width="44" height="34" viewBox="0 0 44 34"><path fill-rule="evenodd" clip-rule="evenodd" fill="#5E5E5F" d="M34 22H16a1 1 0 0 0 0 2h18a1 1 0 0 0 0-2zm0-6H16a1 1 0 0 0 0 2h18a1 1 0 0 0 0-2zm8-1V8a4 4 0 0 0-4-4H4a4 4 0 0 0-4 4v18a4 4 0 0 0 4 4h34a4 4 0 0 0 4-4v-7h-2v7a2 2 0 0 1-2 2H4a2 2 0 0 1-2-2V8a2 2 0 0 1 2-2h34a2 2 0 0 1 2 2v7h2zM9 9a2 2 0 1 0 0 4 2 2 0 0 0 0-4zm0 12a2 2 0 1 0 0 4 2 2 0 0 0 0-4zm0-6a2 2 0 1 0 0 4 2 2 0 0 0 0-4zm25-5H16a1 1 0 0 0 0 2h18a1 1 0 0 0 0-2z"/></svg>