<svg xmlns="http://www.w3.org/2000/svg" preserveAspectRatio="xMidYMid" width="117.062" height="37.75" viewBox="0 0 117.062 37.75"><defs><style>.cls-1{fill:#fa2855;fill-rule:evenodd}</style></defs><path d="M117.058 8.517c-.44 18.277-.8 24.715-2.24 26.755-.96 1.44-1.92 1.88-3.4 2.16-1.28.24-3.318.2-5.318.16-.04-1.36-.64-3.4-1.48-4.76 1.96.16 3.76.16 4.64.16.68 0 1.08-.12 1.48-.72.44-.52.76-1.84 1-4.32l-3.36 1.24c-.08-.6-.24-1.24-.4-1.96-6.96 1.52-8.28 1.96-9.12 2.48-.24-.84-.88-2.8-1.4-3.918.68-.2 1.24-1.04 1.8-2.32.6-1.2 2.36-6 3.12-10.358l4.28 1.2c-.88 3.44-2.28 7.118-3.76 10.158l4.2-.8c-.36-1.44-.76-2.88-1.2-4.16l3.24-1.08c1.08 2.88 2.2 6.64 2.64 9.08.32-3.48.52-8.8.68-16.878h-9.84c-.96 2.2-2.08 4.24-3.2 5.8-.68-.64-2.04-1.8-3.118-2.6v12.878h-3.72V6.797h-7.12v20.156h-3.558V2.558h14.398v10.078c2.16-3.16 3.92-7.8 4.96-12.278l4.558 1c-.44 1.68-.92 3.32-1.48 4.96h12.718v2.2zm-29.755.4h3.68v10.718c0 5.92-1.16 13.277-7.88 17.837-.52-.8-1.72-2.04-2.56-2.72 6.28-3.68 6.76-10.278 6.76-15.117V8.915zM58.14 21.753c-.56-1.92-2.158-4.96-3.638-7.198l3.68-1.64c1.52 2.2 3.24 5.04 3.84 7.04l-3.88 1.798zm17.44 12.88c-3.36-2.56-5.72-5.28-7.558-8.64v6.36c0 2.4-.48 3.64-1.88 4.4-1.36.8-3.4 1-6.36 1-.2-1.28-1-3.32-1.6-4.6 1.92.08 3.8.08 4.4.04.6 0 .88-.2.88-.8v-6.56c-2.8 2.72-5.68 5.48-8.158 7.72l-2.2-3.36c-4.12 1.32-8.438 2.68-11.878 3.76l-1-4.52c1.4-.36 3-.8 4.8-1.32v-9.638h-4v-4.36h4V7.078h-4.2v-4.44h12.678v4.44h-4.04v7.04h3.44v4.358h-3.44v8.358l4.08-1.24.44 2.6c2.6-1.92 6.16-4.72 9.478-7.478v-9.56h-9.198V6.798h9.198v-6.4h4.56v6.4h5.44c-1.04-1.2-2.76-2.68-4.2-3.76l2.6-2.4c1.68 1.04 3.758 2.76 4.798 3.96l-2.28 2.2h3.44v4.36h-9.8v1.6c.4 2.198.88 4.118 1.44 5.918 1.48-1.92 3.04-4.12 4.04-5.92l4.118 2.16c-2.08 2.72-4.6 5.68-6.6 7.72 1.72 3.44 4.08 5.998 7.48 8.398-1.08.8-2.36 2.32-2.92 3.6zM35.42 18.514c-1.32-.72-2.64-1.44-3.84-2.12v2.56h-9.837v4.6h9.52v4.158h-9.52v4.8H36.38v4.28H2.384v-4.28h14.358v-4.8h-9.12v-4.16h9.12v-4.598h-9.68v-2.68c-1.24.72-2.518 1.4-3.838 2.04-.64-1.24-2.04-2.84-3.24-3.96C7.144 11.395 14.422 6.198 18.42 0l4.24 1.96-.72 1.08c4.76 5.08 10.28 8.598 16.678 11.398-1.2 1.08-2.6 2.68-3.2 4.08zM19.22 6.437c-2.878 3.16-6.198 6-9.717 8.318H29.02c-3.52-2.32-6.72-5-9.8-8.318zm79 28.195l-3.278 2.48c-1.12-1.84-3.64-4.96-5.56-7.24l3.12-2.2c1.92 2.12 4.48 5.08 5.72 6.96z" class="cls-1"/></svg>