<svg xmlns="http://www.w3.org/2000/svg" preserveAspectRatio="xMidYMid" width="196.438" height="37.812" viewBox="0 0 196.438 37.812"><defs><style>.cls-1{fill:#fa2855;fill-rule:evenodd}</style></defs><path d="M196.44 8.506c-.44 18.277-.8 24.716-2.24 26.755-.96 1.44-1.92 1.88-3.4 2.16-1.28.24-3.32.2-5.32.16-.04-1.36-.64-3.4-1.48-4.757 1.96.16 3.76.16 4.64.16.68 0 1.08-.12 1.48-.72.44-.52.76-1.84 1-4.32l-3.36 1.24c-.08-.6-.24-1.24-.4-1.96-6.958 1.52-8.278 1.96-9.118 2.48-.24-.84-.88-2.8-1.4-3.92.68-.2 1.24-1.04 1.8-2.32.6-1.2 2.36-5.998 3.12-10.357l4.28 1.2c-.88 3.44-2.28 7.12-3.76 10.158l4.2-.8c-.36-1.44-.76-2.88-1.2-4.16l3.238-1.08c1.08 2.88 2.2 6.64 2.64 9.08.32-3.48.52-8.8.68-16.878h-9.838c-.96 2.2-2.08 4.24-3.2 5.8-.68-.64-2.04-1.8-3.12-2.6v12.878h-3.72V6.786h-7.118v20.157h-3.56V2.547h14.4v10.078c2.158-3.16 3.918-7.8 4.958-12.278l4.56 1c-.44 1.68-.92 3.32-1.48 4.96h12.717v2.2zm-29.756.4h3.68v10.718c0 5.92-1.16 13.278-7.88 17.837-.52-.8-1.72-2.04-2.56-2.72 6.28-3.677 6.76-10.276 6.76-15.115V8.905zm-29.162 12.838c-.56-1.92-2.16-4.96-3.64-7.2l3.68-1.64c1.52 2.2 3.24 5.04 3.84 7.04l-3.88 1.8zM154.96 34.62c-3.36-2.558-5.72-5.278-7.56-8.637v6.36c0 2.398-.48 3.638-1.88 4.398-1.36.8-3.398 1-6.358 1-.2-1.28-1-3.32-1.6-4.597 1.92.08 3.8.08 4.4.04.6 0 .88-.2.88-.8v-6.56c-2.8 2.72-5.68 5.48-8.16 7.72l-2.2-3.36c-4.118 1.32-8.437 2.68-11.877 3.76l-1-4.52c1.4-.36 3-.8 4.8-1.32v-9.638h-4v-4.36h4V7.067h-4.2v-4.44h12.678v4.44h-4.04v7.04h3.44v4.358h-3.44v8.36l4.08-1.24.44 2.598c2.6-1.92 6.16-4.72 9.478-7.478v-9.56h-9.196V6.787h9.198v-6.4h4.56v6.4h5.44c-1.04-1.2-2.76-2.68-4.2-3.76l2.6-2.4c1.68 1.04 3.76 2.76 4.8 3.96l-2.28 2.2h3.44v4.36h-9.8v1.6c.4 2.2.88 4.118 1.44 5.918 1.48-1.92 3.04-4.12 4.04-5.92l4.12 2.16c-2.08 2.72-4.6 5.68-6.6 7.72 1.72 3.44 4.08 5.998 7.48 8.398-1.08.8-2.36 2.32-2.92 3.6zM114.8 18.505c-1.32-.72-2.64-1.44-3.84-2.12v2.56h-9.838v4.6h9.518v4.16h-9.518V32.5h14.637v4.28H81.763V32.5h14.358v-4.8h-9.12v-4.16h9.12v-4.598h-9.68v-2.68c-1.24.72-2.518 1.4-3.838 2.04-.64-1.24-2.04-2.84-3.24-3.96 7.16-2.96 14.438-8.158 18.437-14.357l4.24 1.96-.72 1.08c4.76 5.08 10.28 8.598 16.678 11.398-1.2 1.08-2.6 2.68-3.2 4.08zM98.6 6.425c-2.88 3.16-6.2 6-9.718 8.32H108.4c-3.52-2.32-6.718-5-9.798-8.32zM54.88 30.543h8.44V8.466h-7.76v-4.76h20.68v4.76h-7.72v22.076h8.56v4.76H54.882v-4.76zm-5.438-18.197c.88-1.36 1.72-2.72 2.44-4.12l4.2 2.68c-2.28 3.72-5.12 7.4-8.08 10.52l6.72-.92c-.08 1.32.04 3.158.2 4.198-10.6 1.64-12.36 2.08-13.48 2.68-.24-.96-1.04-3.28-1.6-4.56 1.12-.24 2-1.08 3.4-2.48.64-.6 1.8-1.92 3.12-3.64-3.6.4-4.6.68-5.28 1-.24-1-1.04-3.278-1.56-4.558.84-.24 1.56-1.04 2.44-2.32.92-1.2 3.64-6.08 5.2-10.678l4.76 1.92a59.09 59.09 0 0 1-6 10.558l3.52-.28zm-18.084 4.6v.12c-.4 11.797-.88 16.517-2.28 18.156-1 1.28-2.08 1.72-3.6 1.88-1.44.2-3.678.2-6.078.12-.08-1.44-.68-3.437-1.52-4.797 2.16.2 4.28.2 5.24.2.72 0 1.16-.12 1.6-.52.84-.92 1.24-4.32 1.6-12.438h-8.36c-1.04 7.56-3.68 14.357-13.957 18.157-.56-1.28-1.92-3.2-3-4.238 8.92-2.88 11.038-8.16 11.878-13.918H6.44v-2.36c-.76.84-1.56 1.6-2.397 2.28-.88-1-2.88-2.92-4.04-3.76C4.683 12.466 8.723 6.868 10.96.91l5.12 1.4c-1.8 4.64-4.48 9.037-7.48 12.637h21.08c-3-3.72-5.96-8.16-8.038-12.438l4.48-1.68C28.52 5.87 33.32 11.786 37.44 15.186c-1.2.92-2.96 2.76-3.84 4.04-.72-.72-1.48-1.48-2.24-2.28zM53.963 28.42l.52 4.48c-4.8 1.12-9.84 2.28-13.798 3.24l-.84-4.92c3.6-.6 9.04-1.76 14.118-2.8zm123.64 6.2l-3.28 2.48c-1.12-1.84-3.64-4.96-5.56-7.24l3.12-2.2c1.92 2.12 4.48 5.08 5.72 6.96z" class="cls-1"/></svg>