<svg xmlns="http://www.w3.org/2000/svg" preserveAspectRatio="xMidYMid" width="26" height="26" viewBox="0 0 26 26"><defs><style>.cls-1{fill:#ff5656;fill-rule:evenodd}</style></defs><path d="M23 26H3a3 3 0 0 1-3-3V3a3 3 0 0 1 3-3h20a3 3 0 0 1 3 3v20a3 3 0 0 1-3 3zM20.166 9.067H15.29c-.044 0-.087.01-.13.014.205-.292.424-.523.658-.897a1.31 1.31 0 0 0 .064-.116c.526-1.107.652-2.05.375-2.806-.267-.726-.795-.995-.95-1.06a2.426 2.426 0 0 0-.914-.2c-.946 0-1.578.708-1.734 1.43-.187.614-1.948 2.617-3.81 4.328-.36-.262-.794-.32-1.266-.32H6.212c-1.218 0-2.21.93-2.21 2.192v7.01c0 1.262.992 2.353 2.21 2.353h1.373c.807 0 1.51-.515 1.897-1.187h.012c.205.125.463.263.786.4.71.303 1.72.626 3.067.74.12.024.24.038.366.038h.246c.193.008.39.013.6.013v-.013h4.027c1.012 0 1.836-.886 1.836-1.935 0-.39-.114-.75-.307-1.05a1.944 1.944 0 0 0 .516-2.658 1.937 1.937 0 0 0 .515-2.675c.51-.34.853-.928.853-1.602 0-1.05-.823-2-1.835-2zm0 2.693h-3.35a.575.575 0 0 0-.564.586c0 .323.253.585.565.585h2.035v-.004h.788c.404 0 .73.404.73.822 0 .42-.326.726-.73.726h-3.19a.57.57 0 0 0-.566.573c0 .316.253.572.565.572h2.663c.404 0 .73.37.73.79a.744.744 0 0 1-.73.757h-.332c-.063-.007-.126-.02-.193-.02h-2.25l-.002.002h-.255a.573.573 0 0 0-.564.58c0 .322.253.582.565.582h2.672a.752.752 0 0 1 .57.74c0 .417-.328.79-.732.79h-4.626a13.925 13.925 0 0 1-1.378-.14c-.227-.036-.438-.11-.636-.155a7.578 7.578 0 0 1-1.248-.397c-.386-.164-.435-.325-.602-.44a1.818 1.818 0 0 1-.085-.06v-.01l-.438-7.996.148-.156c.71-.665 3.685-3.513 4.01-4.785 0 0 .096-.554.66-.554.138 0 .302.03.498.112 0 0 .912.382 0 2.3 0 0-.5.702-1.075 1.438a.774.774 0 0 0-.12.73c.087.25.293.4.544.45h5.927c.403 0 .73.47.73.888 0 .42-.327.694-.73.694zM7.773 19.848h-1.56c-.61 0-1.106-.58-1.106-1.21V11.63c0-.63.497-1.08 1.105-1.08h1.56c.608 0 1.105.45 1.105 1.08v7.008c0 .63-.497 1.21-1.104 1.21z" class="cls-1"/></svg>