<?xml version="1.0" encoding="utf-8"?>
<!-- Generator: Adobe Illustrator 18.0.0, SVG Export Plug-In . SVG Version: 6.00 Build 0)  -->
<!DOCTYPE svg PUBLIC "-//W3C//DTD SVG 1.1//EN" "http://www.w3.org/Graphics/SVG/1.1/DTD/svg11.dtd">
<svg version="1.1" id="图层_1" xmlns="http://www.w3.org/2000/svg" xmlns:xlink="http://www.w3.org/1999/xlink" x="0px" y="0px"
	 viewBox="0 0 96.8 96.8" enable-background="new 0 0 96.8 96.8" xml:space="preserve">
<path fill="#E73053" d="M62,38H34.3c-1.9,0-3.5-1.5-3.5-3.5c0-1.9,1.5-3.5,3.5-3.5H62c1.9,0,3.5,1.5,3.5,3.5
	C65.5,36.5,63.9,38,62,38L62,38z M55.4,51.9H34.3c-1.9,0-3.5-1.5-3.5-3.5c0-1.9,1.5-3.5,3.5-3.5h21.1c1.9,0,3.5,1.5,3.5,3.5
	C58.9,50.3,57.4,51.9,55.4,51.9L55.4,51.9z M96.8,41.5C96.8,18.6,75.1,0,48.4,0C21.7,0,0,18.6,0,41.5C0,54.1,6.8,65.9,18.7,74
	c1.6,1.1,3.7,0.7,4.8-0.9c1.1-1.6,0.7-3.7-0.9-4.8C12.6,61.5,6.9,51.8,6.9,41.5c0-19.1,18.6-34.6,41.5-34.6
	c22.9,0,41.5,15.5,41.5,34.6c0,19.1-18.6,34.6-41.5,34.6c-0.2,0-0.4,0.1-0.6,0.1c-1.6-0.3-3.3,0.6-3.9,2.2c-0.7,1.9-5,5-10.2,8
	c1.9-6.3,1-7.6,0.4-8.5c-0.7-1.1-1.9-1.7-3.2-1.7c-1.9,0-3.5,1.5-3.5,3.5c0,0.6,0.2,1.2,0.5,1.7c-0.3,2-1.9,6.6-3.6,10.8
	c-0.5,1.3-0.2,2.8,0.8,3.8c0.7,0.6,1.5,1,2.4,1c0.5,0,1-0.1,1.4-0.3c3.9-1.8,16-7.5,20.3-13.6C75.5,82.6,96.8,64.1,96.8,41.5
	L96.8,41.5z M96.8,41.5"/>
</svg>
