<svg xmlns="http://www.w3.org/2000/svg" preserveAspectRatio="xMidYMid" width="56" height="22" viewBox="0 0 56 22"><defs><style>.cls-1{fill:#e8380d;fill-rule:evenodd}</style></defs><path d="M25.29.018V10.2S25.694 1.058 35.253.02c.167-.02 6.124 0 6.124 0v5.978S43.692.44 50.287.018c.203-.012 5.712 0 5.712 0v6.368h-4.514s-4.25.574-4.192 4.68c.057 3.978 4.164 4.482 4.164 4.482h4.54v6.428h-5.743c-.204 0-6.06-.303-8.878-5.947v5.976s-5.95.015-6.124 0c-1.178-.094-9.187-1.34-9.993-10.393-.013-.153 0 10.393 0 10.393h-7.092V9.6s-.233 7.87-8.467 8.682c-.233.023-3.37 0-3.37 0v3.724H0V.018h9.67C17.5.628 18.17 8.37 18.17 8.37V.018h7.122zM6.305 5.878v6.54s2.956.02 2.956 0 2.71-.48 2.78-3.23c.063-2.495-2.41-3.364-2.838-3.3l-2.897-.01zm34.83.53h-4.744c-.14 0-4.124.637-4.01 4.777.104 3.794 3.897 4.372 3.897 4.372h4.89c-2.32-4.835-.03-9.15-.03-9.15z" class="cls-1"/></svg>