<svg xmlns="http://www.w3.org/2000/svg" preserveAspectRatio="xMidYMid" width="90" height="90" viewBox="0 0 90 90"><defs><style>.cls-1{fill:#6abbff;fill-rule:evenodd}</style></defs><path d="M44.994 90.002c-24.853 0-45-20.147-45-45C-.006 20.147 20.14 0 44.994 0s45 20.148 45 45c0 24.855-20.147 45.002-45 45.002zM67.33 53.687V52.988l-.082-.705-.118-.797-.15-.777-.117-.4-.115-.425-.15-.405-.157-.45-.178-.426-.194-.437-.345-.713-.307-.628-.308-.56-.266-.524-.307-.476-.226-.438-.477-.653-.6-.87-.14-.215-.046-.092v-.072l.1-.294.14-.26.12-.518.068-.267v-.275l.034-.222v-.222l-.035-.256-.04-.21-.088-.423-.115-.412-.104-.38-.162-.365-.186-.307-.145-.288-.162-.274-.253-.405-.095-.145-.026-.124-.12-.784-.074-.515-.086-.64-.133-.66-.21-.758-.118-.424-.095-.36-.132-.418-.146-.444-.147-.412-.19-.444-.384-.856-.226-.405-.275-.465-.258-.4-.257-.45-.364-.418-.307-.404-.376-.42-.38-.378-.386-.366-.455-.38-.24-.137-.226-.19-.492-.333-.57-.36-.58-.325-.598-.295-.655-.268-.614-.255-.64-.222-.7-.183-.64-.163-.683-.144-.644-.15-.694-.072-.682-.08-.678-.084H45.61l-.687.038-.648.086-.645.085-.654.103-.648.118-.614.145-.614.19-.57.19-.57.18-.574.27-.54.215-.48.262-.5.294-.46.306-.453.347-.375.32-.587.528-.485.49-.466.477-.43.484-.4.496-.352.483-.342.482-.16.216-.146.26-.32.46-.253.457-.226.43-.195.458-.193.418-.16.393-.147.418-.148.387-.2.7-.144.67-.08.564-.082.485V37.065l-.138.145-.128.195-.1.176-.085.19-.11.413-.117.378-.04.34-.028.25v.267l-.273.38-.194.38-.147.364-.107.328-.084.314-.082.294v.752l.047.182.067.333.085.255-.152.112-.43.306-.565.497-.348.293-.34.29-.234.227-.192.203-.413.424-.394.425-.308.366-.367.53-.353.477-.346.53-.293.49-.243.522-.26.482-.186.477-.2.496-.147.483-.146.497-.127.43-.072.464-.08.433-.066.418-.04.817v1.098l.04.333.108.57.04.248.07.253.09.242.08.17.132.314.1.064.062.132.077.032h.081l.34-.032.35-.085.292-.11.307-.19.28-.178.253-.23.274-.24.232-.25.22-.28.2-.255.188-.21.118-.24.23-.4.07-.163.04-.098.02-.11.055-.093.04-.018.08-.04h.047l.02.04h.04l.04.02.128.542.138.437.187.46.188.41.16.412.242.36.18.378.198.347.233.3.176.29.464.534.408.48.392.37.388.334.334.26.5.425.2.09.068.093v.044l-.048.04h-.02l-.1.033-.374.027-.348.045-.293.04-.306.064-.267.08-.266.077-.232.118-.186.112-.234.072-.147.117-.158.093-.168.13-.213.255-.08.118-.098.104-.135.268-.074.222-.088.223-.018.195v.366l-.04.183v.185l-.046.182v.163l.048.177.04.157.105.307.074.144.095.145.104.143.115.125.153.143.115.118.34.242.34.202.393.184.422.163.446.176.494.112.495.157.533.104.533.078.547.08.566.077 1.117.11 1.153.02h2.04l.5-.02.428-.046.41-.033.39-.03.62-.12.447-.116.428-.105.786-.315.355-.13.34-.163.56-.3.506-.243.374-.23.274-.242.427.046.333.033.655.046h.567l.198.04.203.077.32.112.358.117.682.2.695.243.68.19.68.13.7.17.72.1.686.07.69.092.64.06.688.038h1.907l.615-.072.6-.025.58-.09.534-.113.532-.11.513-.12.213-.057.236-.072.445-.17.394-.176.37-.182.35-.19.306-.223.122-.118.145-.163.185-.214.203-.27.074-.135.033-.11.084-.145.034-.157v-.15l.04-.15-.04-.222-.033-.19-.084-.22-.068-.184-.128-.222-.152-.204-.148-.176-.2-.15-.408-.34-.46-.327-.462-.26-.486-.27-1.113-.522-.268-.155-.073-.073-.048-.045.535-.516.233-.254.192-.235.375-.516.352-.53.298-.47.284-.45.377-.902.293-.75.196-.53.11-.177.067-.143.12-.085h.046l.034.02.286.54.255.525.18.294.186.253.186.314.236.307.2.217.12.117.12.105.107.077.104.072.228.11.12.04h.186l.122-.04.15-.072.164-.072.138-.117.128-.138.146-.17.114-.13.128-.21.098-.17.115-.243.06-.203.166-.496.107-.548.078-.607.054-.354v-.293z" class="cls-1"/></svg>