<svg xmlns="http://www.w3.org/2000/svg" preserveAspectRatio="xMidYMid" width="80" height="80" viewBox="0 0 80 80"><defs><style>.cls-1{fill:#62dc42;fill-rule:evenodd}</style></defs><path d="M40 80C17.91 80 0 62.09 0 40S17.91 0 40 0s40 17.91 40 40-17.91 40-40 40zm18.94-58.906c-.097-2.264-1.923-4.07-4.183-4.08l-29.736.017c-2.24.102-4.03 1.957-4.03 4.25v2.266l-.004 33.876h.003v2.266c0 2.357 1.887 4.268 4.218 4.268h2.11v.012l6.226-.01c1.167 0 2.11-.957 2.11-2.135 0-1.18-.945-2.135-2.11-2.135l-4.118-.052c-3.385 0-4.22-.644-4.22-4.267V25.597c0-3.624.834-4.267 4.22-4.267l-1.365-.033 24.39-.013-1.926.048c3.214 0 4.118.61 4.202 3.776l.014 19.625-8.304.01v.008h-2.242c-2.33 0-4.22 1.91-4.22 4.27v2.133h-.013l.015 10.452c-.05.45.05.895.284 1.298.052.094.193.312.257.4-.03-.024-.027-.018.03.04l-.03-.04c.083.063.442.372.702.49.01.007.022.016.035.02.254.11.535.173.83.173a2.1 2.1 0 0 0 1.758-.96L57.93 48.74c.035-.02.062-.052.094-.075 1.168-.746 1.014-2.087.936-2.38l-.02-25.19zm-8.387 15.122l-21.178.02a2.12 2.12 0 0 0-2.11 2.134c0 1.18.945 2.135 2.11 2.135l21.178-.02c1.165 0 2.11-.955 2.11-2.135 0-1.178-.945-2.134-2.11-2.134zm2.11-6.402c0-1.18-.945-2.135-2.11-2.135l-21.178.02c-1.166 0-2.11.956-2.11 2.134 0 1.18.945 2.135 2.11 2.135l21.178-.022a2.12 2.12 0 0 0 2.11-2.134zm2.06-8.533v1.43l-.01-1.43h.01zM44.18 53.18c.056-4.672-.433-4.202 4.283-4.163l3.246-.01-7.525 7.63-.004-3.456z" class="cls-1"/></svg>