<svg xmlns="http://www.w3.org/2000/svg" preserveAspectRatio="xMidYMid" width="30" height="25" viewBox="0 0 30 25"><defs><style>.cls-1{fill:#fa2855;fill-rule:evenodd}</style></defs><path d="M27 18a12.99 12.99 0 0 1-3.165 4.517c-.092.148-.218.27-.37.354l-1.158-1.663C24.567 19.192 26 16.267 26 13c0-6.075-4.925-11-11-11S4 6.925 4 13c0 3.35 1.512 6.33 3.874 8.348A2 2 0 1 1 9 25a1.994 1.994 0 0 1-1.98-1.788C5.27 21.852 3.866 20.075 3 18c-2.76 0-3-2.24-3-5s.24-5 3-5c1.96-4.697 6.593-8 12-8s10.04 3.303 12 8c2.76 0 3 2.24 3 5s-.24 5-3 5z" class="cls-1"/></svg>