<svg xmlns="http://www.w3.org/2000/svg" preserveAspectRatio="xMidYMid" width="42" height="35" viewBox="0 0 42 35"><defs><style>.cls-1{fill:#333;fill-rule:evenodd}</style></defs><path d="M40 23H19c-.852 0-1.973-.466-1.973-1.466L14.19 6.23c0-.906.673-1.7 1.702-1.7l24.404 3.4c1 0 1.702.747 1.702 1.702L42 21c0 1.056-1.036 2-2 2zm.013-12.658L17 7l2 14 21.013.004V10.342zm.605 15.66c.76 0 1.375.445 1.375.994 0 .55-.616.994-1.375.994H15.373a1.67 1.67 0 0 1-.974-.293 1.122 1.122 0 0 1-.778-1.06L8.142 2H.864A.865.865 0 0 1 0 1.135v-.27C0 .387.387 0 .865 0H9.06c.008 0 .014-.004.022-.004.008 0 .014.004.022.004h.03c.126 0 .244.03.35.077.428.163.733.57.733 1.052L15.75 26H40.62zM20 29a3 3 0 1 1 0 6 3 3 0 0 1 0-6zm17 0a3 3 0 1 1 0 6 3 3 0 0 1 0-6z" class="cls-1"/></svg>