<svg id="图层_1" xmlns="http://www.w3.org/2000/svg" viewBox="0 0 60 30"><style>.st0{fill:#fa2855}</style><path class="st0" d="M44.1 15.6l1-.7h-3.4v1.7h4.2c-.6-.4-1.2-.7-1.8-1zm-4-5.8h-5.3v1.4h5.3V9.8zM52 0H8C3.6 0 0 3.6 0 8v14c0 4.4 3.6 8 8 8h44c4.4 0 8-3.6 8-8V8c0-4.4-3.6-8-8-8zM33.3 14.9V8.7h6.8V7.3h-8.3V6h8.3V4.7h1.7V6h8.6v1.3h-8.6v1.4h7v6.1h-3.5c1.9.8 4.1 2.2 5.2 3.2l-1.1 1c-.4-.4-.9-.8-1.5-1.2-5.9.1-12 .2-16.1.3l-.1-1.5H40v-1.7h-6.7zm10.5 5.6l-1.1 1c-.7-.8-2.3-1.8-3.6-2.5l1-.9c1.2.7 2.8 1.7 3.7 2.4zM24.5 5.2c1.1 1 2.4 2.4 3 3.2l-1.2.9c-.6-.9-1.8-2.3-2.9-3.3l1.1-.8zM13.3 24.7h-1.6v-12c-.6.9-1.2 1.7-1.8 2.3-.2-.4-.7-1.2-.9-1.6 2-2.1 4-5.4 5.1-8.7l1.5.5c-.6 1.7-1.4 3.4-2.3 5v14.5zm2.1-.1c-.3-.4-.8-.9-1.2-1.2 3.7-2.6 4.8-7.1 5.2-12.1h-4.8V9.8h5c.1-1.6.1-3.3.1-4.9h1.6c0 1.6 0 3.3-.1 4.9h7.9v1.6h-7.9c-.7 5.4-1.9 10.3-5.8 13.2zm11.4-.5h-2.6c-1.7 0-2.2-.5-2.2-2.3v-8.7h1.6v8.7c0 .7.1.8.8.8h2.2c.6 0 .8-.5.8-3.4.4.3 1 .6 1.5.7-.1 3.3-.5 4.2-2.1 4.2zm5.9-.1l-1.4-.8c.9-1 1.6-2.8 2.1-4.1l1.4.6c-.6 1.4-1.3 3.2-2.1 4.3zm11.3.4h-5c-2.5 0-3.1-.4-3.1-2v-3.1h1.6v3.1c0 .6.2.7 1.6.7h4.8c1.1 0 1.3-.3 1.4-2.2.4.2 1 .5 1.5.6-.3 2.3-.8 2.9-2.8 2.9zm5.1-.5c-.4-1.1-1.5-2.9-2.5-4.2l1.4-.5c1.1 1.3 2.2 2.9 2.6 4.1l-1.5.6zm-1.9-11.6h-5.4v1.5h5.4v-1.5zm-7.1 0h-5.3v1.5h5.3v-1.5zm7.1-2.5h-5.4v1.4h5.4V9.8z"/></svg>