<svg xmlns="http://www.w3.org/2000/svg" preserveAspectRatio="xMidYMid" width="26" height="26" viewBox="0 0 26 26"><defs><style>.cls-1{fill:#56d1ff;fill-rule:evenodd}</style></defs><path d="M23 26H3a3 3 0 0 1-3-3V3a3 3 0 0 1 3-3h20a3 3 0 0 1 3 3v20a3 3 0 0 1-3 3zM21 9h-3.1c-.456-2.327-2.48-4-4.9-4-2.373 0-4.356 1.715-4.862 4H5s-.072 11.07 0 11c.02.982.945 1.996 2 2h12.08c1.06 0 1.92-.814 1.92-1.816V9zM7 11.85l.938-.84L18 11l1 1v8H7v-8.15zM13 7c1.48 0 2.51.732 2.86 2h-5.72c.35-1.268 1.38-2 2.86-2z" class="cls-1"/></svg>