<svg xmlns="http://www.w3.org/2000/svg" preserveAspectRatio="xMidYMid" width="40" height="40" viewBox="0 0 40 40"><defs><style>.cls-1{fill:#333;fill-rule:evenodd}</style></defs><path d="M20 40C8.954 40 0 31.046 0 20S8.954 0 20 0s20 8.954 20 20-8.954 20-20 20zm0-38C10.06 2 2 10.06 2 20s8.06 18 18 18 18-8.06 18-18S29.94 2 20 2zm7.778 27.192L20 21.414l-7.778 7.778-1.414-1.414L18.586 20l-7.778-7.778 1.414-1.414L20 18.586l7.778-7.778 1.414 1.414L21.414 20l7.778 7.778-1.414 1.414z" class="cls-1"/></svg>