<svg xmlns="http://www.w3.org/2000/svg" viewBox="0 0 54 34"><path fill="#5E5E5F" d="M39.8 34H16c-2.2 0-4-1.8-4-4V6.2C12 4 13.8 2 16 2h16v2H16c-1.1 0-2 1.1-2 2.2V30c0 1.1.9 2 2 2h23.8c1.1 0 2.2-.9 2.2-2V14h2v16c0 2.2-2 4-4.2 4zm-12.9-8.6c-.3.3-.7.4-1 .5l-8.7 4.3c-1 .5-1.8-.4-1.4-1.4l4.3-8.7c.1-.4.2-.7.5-1L36.1 3.6c.8-.8 2-.8 2.8 0l3.5 3.5c.8.8.8 2 0 2.8L26.9 25.4zm-9.2 2.2c-.2.5.2.9.7.7l5.4-3.3-2.8-2.8-3.3 5.4zm4.3-7.2L33.2 9.2l3.5 3.5L25.5 24c-1.3-1.4-3.1-3.2-3.5-3.6zM40.3 7.8l-2.1-2.1c-.4-.4-1-.4-1.4 0l-2.1 2.1 3.5 3.6 2.1-2.1c.4-.5.4-1.1 0-1.5z"/></svg>