<svg xmlns="http://www.w3.org/2000/svg" width="54" height="34" viewBox="0 0 54 34"><path fill-rule="evenodd" clip-rule="evenodd" fill="#5E5E5F" d="M14.007 17v-6h-3l-4 6h7zm3-17v6h-9l-8.014 9.305L.007 29h4.09c.477 2.836 2.938 5 5.91 5s5.433-2.164 5.91-5h21.18c.478 2.836 2.938 5 5.91 5s5.433-2.164 5.91-5h5.09V0h-37zm-7 32a4 4 0 1 1 0-8 4 4 0 0 1 0 8zm7-5h-1.09c-.477-2.836-2.938-5-5.91-5s-5.433 2.164-5.91 5h-2.09V16l7-8h8v19zm26 5a4 4 0 1 1 0-8 4 4 0 0 1 0 8zm9-5h-3.09c-.478-2.836-2.938-5-5.91-5s-5.433 2.164-5.91 5h-18.09V2h33v25z"/></svg>