<svg xmlns="http://www.w3.org/2000/svg" width="44" height="34" viewBox="0 0 44 34"><path fill="#5E5E5F" d="M28 8.007c1.866-1.522 3.316-3.37 2.468-4.635-.926-1.38-3.553-1.23-5.824.28-1.016.675-1.848 1.52-2.342 2.384a4.02 4.02 0 0 0-.306.68c-.377-1.055-1.284-2.168-2.63-3.064-2.276-1.512-4.9-1.66-5.825-.278-.517.77-.463 1.79.152 2.864.373.65 1.5 1.384 2.308 1.77H9v6h2V32h22V14.007h2v-6h-7zm-3.96-.984c.338-.59.963-1.216 1.713-1.716.885-.587 1.84-.938 2.555-.938.348 0 .482.087.496.107.14.206-.33 1.416-1.94 2.487-.884.588-1.84.94-2.556.94-.346 0-.48-.088-.494-.11-.02-.027-.057-.276.226-.77zM15.205 4.48c.013-.022.147-.11.495-.11.716 0 1.67.352 2.556.938 1.61 1.07 2.077 2.282 1.938 2.488-.013.02-.147.108-.495.108-.717 0-1.67-.352-2.557-.94-.75-.498-1.375-1.123-1.712-1.714-.282-.493-.245-.743-.225-.77zM18 30.01h-5V14.006h5V30.01zm0-18.003h-7v-2h7v2zm6 18.002h-4V10.006h4V30.01zm7 0h-5V14.006h5V30.01zm2-18.003h-7v-2h7v2z"/></svg>