<?xml version="1.0" encoding="utf-8"?>
<!-- Generator: Adobe Illustrator 18.0.0, SVG Export Plug-In . SVG Version: 6.00 Build 0)  -->
<!DOCTYPE svg PUBLIC "-//W3C//DTD SVG 1.1//EN" "http://www.w3.org/Graphics/SVG/1.1/DTD/svg11.dtd">
<svg version="1.1" id="图层_1" xmlns="http://www.w3.org/2000/svg" xmlns:xlink="http://www.w3.org/1999/xlink" x="0px" y="0px"
	 viewBox="0 0 96.7 90.7" enable-background="new 0 0 96.7 90.7" xml:space="preserve">
<path fill="#E73053" d="M96.7,77.7c0-13.8-8.4-25.6-20.4-30.5c5.8-3.9,9.6-10.6,9.6-18.2c0-10.3-7.1-19-16.6-21.3
	c-0.1,0-0.2,0-0.3,0c-0.1,0-0.2,0-0.3,0c-2,0-3.7,1.7-3.7,3.7c0,1.9,1.4,3.4,3.1,3.7c0.3,0.1,0.7,0.2,0.7,0.2
	c5.5,1.9,9.5,7.2,9.5,13.4c0,7-4.9,12.7-11.5,13.9c0,0,0,0,0,0C64.7,43,63,44.8,63,47c0,2.3,1.8,4.1,4,4.2c0,0,0,0,0,0
	c13.1,1.4,22.4,12.7,22.4,26.4c0,2,1.6,3.7,3.6,3.7c2,0,3.6-1.6,3.6-3.5C96.7,77.8,96.7,77.8,96.7,77.7
	C96.7,77.8,96.7,77.8,96.7,77.7L96.7,77.7C96.7,77.8,96.7,77.7,96.7,77.7L96.7,77.7L96.7,77.7L96.7,77.7L96.7,77.7L96.7,77.7z
	 M53.1,47.9c6.9-4.7,11.5-12.7,11.5-21.7C64.5,11.7,53,0,38.7,0S12.9,11.7,12.9,26.1c0,9.1,4.6,17,11.5,21.7
	C10.1,53.6,0,67.8,0,84.3c0,0.9,0.1,1.8,0.1,2.8h0c0,2,1.6,3.6,3.6,3.6c2,0,3.6-1.6,3.6-3.6c0-0.1,0-0.2,0-0.3
	c-0.1-0.8-0.1-1.6-0.1-2.4c0-17.7,14.1-32,31.6-32c17.4,0,31.6,14.3,31.6,32c0,0.9-0.1,1.7-0.1,2.5c0,0,0,0.1,0,0.1c0,0,0,0,0,0
	c0,0,0,0,0,0.1h0c0.1,2,1.6,3.5,3.6,3.5c1.9,0,3.5-1.6,3.6-3.5h0c0.1-0.9,0.1-1.8,0.1-2.8C77.5,67.8,67.4,53.6,53.1,47.9L53.1,47.9
	L53.1,47.9z M38.7,44.9c-10.2,0-18.5-8.4-18.5-18.8c0-10.4,8.3-18.8,18.5-18.8c10.2,0,18.5,8.4,18.5,18.8
	C57.3,36.5,49,44.9,38.7,44.9L38.7,44.9L38.7,44.9z M38.7,44.9"/>
</svg>
