<svg xmlns="http://www.w3.org/2000/svg" preserveAspectRatio="xMidYMid" width="26" height="32" viewBox="0 0 26 32"><defs><style>.cls-1{fill:#5f5f5f;fill-rule:evenodd}</style></defs><path d="M22 32H4a4 4 0 0 1-4-4V4a4 4 0 0 1 4-4h12c1.34-.02 1.87.03 2 .03V0l8 8v20a4 4 0 0 1-4 4zM18 2v4a2 2 0 0 0 2 2h4l-6-6zm6 8h-4a4 4 0 0 1-4-4s-.047-1.605-.028-4H4a2 2 0 0 0-2 2v24a2 2 0 0 0 2 2h18a2 2 0 0 0 2-2V10zm-5 14H7a1 1 0 0 1 0-2h12a1 1 0 0 1 0 2zm0-6H7a1 1 0 0 1 0-2h12a1 1 0 0 1 0 2z" class="cls-1"/></svg>