<svg xmlns="http://www.w3.org/2000/svg" preserveAspectRatio="xMidYMid" width="32" height="32" viewBox="0 0 32 32"><defs><style>.cls-1{fill:#ff4b4b;fill-rule:evenodd}</style></defs><path d="M26.002 32.003H6a6 6 0 0 1-6.003-6V5.998A6 6 0 0 1 6-.002h12c2.61 0 4.81 1.673 5.636 4h2.366a6 6 0 0 1 6 6v16.005a6 6 0 0 1-6 6zM18 1.998H6c-2.044 0-3.713 1.538-3.952 3.516 1.058-.932 2.43-1.516 3.95-1.516h15.45a3.978 3.978 0 0 0-3.448-2zm12.002 12c0-.553-.446-1-1-1h-10c-.556 0-1.002.447-1.002 1v6.003a1 1 0 0 0 1 1h10.002c.554 0 1-.446 1-1v-6zm0 9.003H18a2 2 0 0 1-2-2v-8a2 2 0 0 1 2-2h12.002v-1c0-2.21-1.793-4-4-4H6c-2.21 0-4.002 1.79-4.002 4V26c0 2.207 1.793 4 4 4h20.004c2.207 0 4-1.793 4-4v-3zm-10-7h2v2h-2v-2z" class="cls-1"/></svg>