<svg xmlns="http://www.w3.org/2000/svg" preserveAspectRatio="xMidYMid" width="80" height="80" viewBox="0 0 80 80"><defs><style>.cls-1{fill:#aaa;fill-rule:evenodd}</style></defs><path d="M40 80C17.91 80 0 62.09 0 40S17.91 0 40 0s40 17.91 40 40-17.91 40-40 40zm21-54c0-2.822-1.214-4-4-4h-8.176H23c-2.786 0-4 1.178-4 4v28c0 2.822 1.214 4 4 4h34c2.786 0 4-1.178 4-4V26zm-5 29H24c-1.34 0-2-.642-2-2V27c0-1.358.66-2 2-2h6v13c.063.997 1.844.827 3 0l1.118-1.084 2.185 1.562a1.296 1.296 0 0 0 1.507.003L40 36.93l2.19 1.55c.453.322 1.055.32 1.506-.002l2.186-1.562 2.185 1.562a1.3 1.3 0 0 0 1.358.094c.435-.228.708-.682.708-1.178L50 25h6c1.34 0 2 .642 2 2v26c0 1.358-.66 2-2 2zm-30-4h4c.515 0 1-.478 1-1s-.485-1-1-1h-4c-.516 0-1 .478-1 1s.484 1 1 1zm9.04-7.01h-9.094c-.53 0-.956.452-.956 1.01 0 .555.427 1.007.956 1.007h9.094c.53 0 .956-.452.956-1.008 0-.558-.427-1.01-.956-1.01zm10.086-9.783l-2.19 1.565-2.185-1.548a1.296 1.296 0 0 0-1.5 0l-2.187 1.548L35 34c-.453-.324-.547-.324-1 0l-1 1V25h14v10l-.363-.793a1.296 1.296 0 0 0-1.51 0z" class="cls-1"/></svg>