<svg id="图层_1" xmlns="http://www.w3.org/2000/svg" viewBox="0 0 60 30"><style>.st0{fill:#fa2855}</style><path class="st0" d="M20.9 8.2h-3.5c-.6.8-1.4 1.6-2.2 2.3h7.9c-.8-.7-1.5-1.5-2.2-2.3zM52 0H8C3.6 0 0 3.6 0 8v14c0 4.4 3.6 8 8 8h44c4.4 0 8-3.6 8-8V8c0-4.4-3.6-8-8-8zM38.5 7.6h5.2v-3h1.6v3h5.2v1.5h-5.2v3.5h4.8V14H39.2v-1.5h4.6V9.1h-5.2V7.6zm-5.9-1.8c1 .6 2.2 1.5 2.7 2.2l-1 1c-.5-.7-1.7-1.7-2.7-2.4l1-.8zm-4.5 7.9c-1.2-.6-2.6-1.4-3.8-2.4v.4h-8.9v1.4h9v1.2h-9v1.4h9v1.2h-9v1.5h13.3v1.4H17.1c-1 1-2 1.9-3.1 2.7l9.5-.4c-.5-.6-1.1-1.1-1.5-1.5l1.3-.7c1.4 1.2 3.1 2.9 4 4l-1.4.8c-.3-.4-.7-.9-1.3-1.4-11.1.6-12.2.6-12.9.9-.1-.4-.3-1.1-.5-1.5.4-.1.8-.3 1.3-.7.4-.3 1.5-1.1 2.4-2.2H9.5v-1.4h4.3v-6.7c-1.1.8-2.4 1.5-3.8 2.2-.2-.4-.7-.9-1-1.2 2.8-1.2 4.9-2.8 6.5-4.5H9.6V6.8h7c.5-.7.9-1.5 1.3-2.2l1.7.3c-.3.6-.7 1.3-1.1 1.9h10.1v1.4h-5.8c1.7 1.7 4.3 3.4 6.5 4.2-.4.4-.9 1-1.2 1.3zm8-3.6V4.6h1.5v10.3h-1.5v-3.3c-1.6.7-3.2 1.5-4.6 2.1l-.5-1.4c1.2-.4 3.1-1.3 5.1-2.2zm14.1 14.5c-4.3-1.1-7.5-3.4-9.2-7-.9.9-2.2 1.7-3.5 2.4v2.8l5.3-1.1c0 .4-.1 1-.1 1.3-6.2 1.4-7 1.6-7.5 1.8-.1-.4-.4-1-.6-1.3.4-.1 1.1-.5 1.1-1.4v-1.5c-1.3.6-2.7 1-4 1.3-.2-.4-.6-.9-.9-1.2 2.8-.5 5.9-1.7 7.9-3.2h-7.6v-1.3h9.2c-.2-.5-.5-1-.8-1.5l1.6-.4c.4.6.8 1.3 1 1.9h8.6v1.3h-8.4c.6 1 1.3 1.9 2.2 2.7 1.3-.7 2.8-1.6 3.8-2.3l1.2.9c-1.1.8-2.6 1.6-3.9 2.2 1.5 1 3.3 1.8 5.4 2.2-.2.3-.6.9-.8 1.4z"/></svg>