<svg xmlns="http://www.w3.org/2000/svg" viewBox="0 0 49.9 55.8"><path fill="#F5CE4D" d="M49.9 31.8v-.2c0-.2 0-.4-.1-.6 0-.4-.1-.8-.1-.9 0-11.1-7-20.5-16.8-23.9h-.1c0-.2-.2-.2-.4-.2-.7 0-1.2.6-1.2 1.3 0 .7.5 1.2 1.1 1.3 7.5 2.6 13.1 9.2 14.6 17.3-1.2-.9-2.6-1.4-4.1-1.4-2.5 0-4.6 1.4-5.9 3.5-1.3-2.1-3.4-3.5-5.9-3.5-2.5 0-4.6 1.4-5.9 3.5-1.3-2.1-3.4-3.5-5.9-3.5-2.5 0-4.6 1.4-5.9 3.5-1.3-2.1-3.4-3.5-5.9-3.5-1.7 0-3.3.7-4.5 1.8C4.6 15.5 13.6 7.4 24.6 7.2h.4c.9 0 1.2-.7 1.2-1.6V1.2C26.2.5 25.7 0 25 0c-.6 0-1.2.5-1.2 1.2v3.5C10.5 5.4 0 16.5 0 30v1.7c0 .8.6 1.4 1.3 1.4.7 0 1.2-.5 1.3-1.2 0-2.7 2.1-5.2 4.7-5.2 2.5 0 4.6 2.3 4.7 4.9v.1c0 .7.5 1.2 1.2 1.2.6 0 1.2-.5 1.2-1.2v-.1-.1c.1-2.6 2.2-4.9 4.7-4.9 2.2 0 4.1 1.8 4.6 4.1v15.8c-.1.3-.1.6-.1.9 0 2.8-1.1 5.7-5 5.7-3.4 0-5.6-2.9-5.6-5.7 0-.9-.6-1.3-1.2-1.3s-1.2.4-1.2 1.3c0 4.6 2.5 8.2 8.1 8.2 6.4 0 7.4-3.5 7.5-8 .1-.3.1-.6.1-.9V31.6c.2-2.6 2.2-4.9 4.7-4.9s4.6 2.3 4.7 4.9v.2c0 .7.5 1.2 1.2 1.2.6 0 1.2-.5 1.2-1.2v-.1c.1-2.6 2.2-4.9 4.7-4.9 2.1 0 3.9 1.6 4.5 3.6 0 .5.1 1.2.1 1.4 0 .7.6 1.3 1.2 1.3s1.2-.5 1.2-1.1c.1-.1.1-.2.1-.2z"/></svg>